<?xml version="1.0" encoding="UTF-8"?>
<svg version="1.1" xmlns="http://www.w3.org/2000/svg" width="512" height="512">
<path d="M0 0 C1.21954679 0.84350089 2.43443435 1.69377857 3.64453125 2.55078125 C4.2379834 2.96956543 4.83143555 3.38834961 5.44287109 3.81982422 C8.99092998 6.40630628 11.69922264 9.15591184 14.58203125 12.48828125 C16.61137884 14.56858282 16.61137884 14.56858282 19.33203125 15.61328125 C24.7592245 15.20745922 29.70502159 13.79641677 34.91064453 12.27246094 C38.79797413 11.21420424 42.73232931 10.56202334 46.70703125 9.92578125 C47.39466553 9.8074292 48.0822998 9.68907715 48.79077148 9.56713867 C87.80987775 3.13085474 128.75931302 8.26214647 165.78515625 21.4140625 C166.955625 21.80980469 168.12609375 22.20554688 169.33203125 22.61328125 C170.19699219 22.91492187 171.06195313 23.2165625 171.953125 23.52734375 C175.60882003 23.65940498 177.29209643 21.87644021 180.14453125 19.67578125 C205.75522713 0.87593096 238.82773178 -6.09013523 270.12451172 -1.61352539 C279.63933856 0.04357704 287.03570506 3.3147749 293.20703125 10.86328125 C299.67239928 20.95779454 300.93138859 34.89012853 301.33203125 46.61328125 C301.37199219 47.36738281 301.41195313 48.12148437 301.453125 48.8984375 C302.20981429 74.84842907 294.29759439 99.90443558 280.33203125 121.61328125 C279.73648437 122.23460937 279.1409375 122.8559375 278.52734375 123.49609375 C277.00359629 125.690181 277.00359629 125.690181 277.80859375 128.87109375 C278.17657989 130.16446676 278.5605608 131.45335373 278.95703125 132.73828125 C279.35514935 134.19528752 279.74821747 135.65368129 280.13671875 137.11328125 C280.3387793 137.86351562 280.54083984 138.61375 280.74902344 139.38671875 C288.56366648 169.23158664 285.62194085 200.53226686 273.33203125 228.61328125 C274.05648438 229.03738281 274.7809375 229.46148437 275.52734375 229.8984375 C284.14156983 235.12440132 290.13467629 240.0230928 293.63671875 249.67578125 C295.89193244 259.20342558 295.35079716 269.11179597 290.33203125 277.61328125 C284.80681934 286.46417803 274.82796052 291.94811634 266.33203125 297.61328125 C265.62159668 298.08701172 264.91116211 298.56074219 264.17919922 299.04882812 C259.27084666 302.30205181 254.31325332 305.47304435 249.33203125 308.61328125 C248.63561523 309.05494629 247.93919922 309.49661133 247.22167969 309.95166016 C238.17871979 315.6666272 228.96099236 321.0310514 219.58203125 326.17578125 C218.07491577 327.01181885 218.07491577 327.01181885 216.53735352 327.86474609 C211.49088886 330.6030003 206.53531393 332.99824448 201.12109375 334.921875 C191.27345029 338.072622 191.27345029 338.072622 183.93554688 344.83300781 C181.80072468 350.05213979 180.88581648 355.48372574 179.90576172 361.01269531 C176.29487961 377.37997881 163.10182882 393.32388358 151.33203125 404.61328125 C150.65760986 405.02924561 149.98318848 405.44520996 149.28833008 405.8737793 C145.9519779 407.94575019 143.76762252 409.41133192 142.39868164 413.1887207 C141.82038234 416.30885318 141.44933027 419.39233958 141.14453125 422.55078125 C140.85695298 424.80068699 140.56009506 427.04942634 140.25390625 429.296875 C140.03444336 430.92471924 140.03444336 430.92471924 139.81054688 432.58544922 C138.33438743 441.92592344 134.99266178 451.96229998 129.33203125 459.61328125 C126.33203125 461.61328125 126.33203125 461.61328125 122.58203125 461.67578125 C119.56320482 461.95931743 118.54780975 462.39921189 116.359375 464.5703125 C115.15947196 466.14725513 113.99556741 467.75244703 112.875 469.38671875 C111.33203125 471.61328125 111.33203125 471.61328125 109.6328125 473.16015625 C107.90127948 474.76943424 107.90127948 474.76943424 108.33203125 478.48828125 C108.42484375 479.47441406 108.42484375 479.47441406 108.51953125 480.48046875 C108.25284541 483.51402014 107.13514769 485.18162749 105.33203125 487.61328125 C97.33118418 493.53712597 87.81759722 493.67273382 78.33203125 492.61328125 C74.93824238 491.74791343 72.26794358 490.50400879 69.33203125 488.61328125 C68.625625 488.17757813 67.91921875 487.741875 67.19140625 487.29296875 C59.38853595 482.00435666 56.50527872 476.23301038 54.51953125 467.11328125 C54.10814276 464.94951417 53.70697048 462.78366118 53.33203125 460.61328125 C49.12275378 460.89222548 44.91488476 461.1886785 40.70703125 461.48828125 C39.51722656 461.56691406 38.32742187 461.64554687 37.1015625 461.7265625 C35.37099609 461.85224609 35.37099609 461.85224609 33.60546875 461.98046875 C32.54763184 462.05378418 31.48979492 462.12709961 30.39990234 462.20263672 C25.62532732 462.84172913 21.60847975 463.98843636 17.921875 467.15234375 C17.33140381 467.64645752 16.74093262 468.14057129 16.13256836 468.6496582 C15.51776611 469.17390381 14.90296387 469.69814941 14.26953125 470.23828125 C-0.11470478 482.0925642 -17.33709903 494.24950964 -36.66796875 492.61328125 C-44.29725143 490.93584956 -50.67867786 487.70283061 -55.66796875 481.61328125 C-59.82107873 475.02089925 -61.94573618 469.30879381 -62.66796875 461.61328125 C-63.37703369 461.53811279 -64.08609863 461.46294434 -64.81665039 461.38549805 C-76.7533086 460.10522251 -88.54523081 458.83077972 -100.2734375 456.23046875 C-104.06976149 455.54022803 -107.82221901 455.29010275 -111.66796875 455.11328125 C-120.19322783 454.64310567 -124.84326799 452.47452476 -131.4921875 447.20703125 C-133.83012666 445.49450131 -136.24418839 444.17643482 -138.79296875 442.80078125 C-144.02297519 439.69017649 -147.26666541 436.2369218 -149.66796875 430.61328125 C-152.6071373 419.04030508 -147.59864492 409.87777989 -142.29296875 399.80078125 C-141.50720459 398.30333374 -141.50720459 398.30333374 -140.70556641 396.77563477 C-126.17427882 369.56339699 -106.88387621 343.86155023 -86.02734375 321.19140625 C-83.37679386 318.29511001 -80.7973922 315.3442437 -78.23828125 312.3671875 C-76.66796875 310.61328125 -76.66796875 310.61328125 -74.71484375 308.87109375 C-71.98548661 305.86046698 -70.50353844 302.58448795 -68.79296875 298.92578125 C-62.09481037 285.04012287 -62.09481037 285.04012287 -57.66796875 280.61328125 C-57.26758575 277.75799518 -56.91614605 274.91591638 -56.60546875 272.05078125 C-56.51458984 271.24447266 -56.42371094 270.43816406 -56.33007812 269.60742188 C-56.10549426 267.60980748 -55.88623639 265.61159565 -55.66796875 263.61328125 C-56.83585937 263.17435547 -56.83585937 263.17435547 -58.02734375 262.7265625 C-61.06884929 261.44427096 -62.61035874 260.18529376 -64.66796875 257.61328125 C-66.03383925 253.4106028 -66.03383925 253.4106028 -64.83984375 250.80859375 C-64.3843389 248.29974852 -64.3843389 248.29974852 -66.9765625 245.88671875 C-68.00745786 244.9077007 -69.05107875 243.94194959 -70.10546875 242.98828125 C-72.00457087 241.23028173 -73.84388733 239.45195532 -75.66796875 237.61328125 C-75.66796875 236.95328125 -75.66796875 236.29328125 -75.66796875 235.61328125 C-76.88484375 235.84015625 -78.10171875 236.06703125 -79.35546875 236.30078125 C-82.15632452 236.8229747 -83.48767545 236.68687035 -86.15625 235.59765625 C-89.53137092 232.93115325 -91.16907774 229.93569393 -93.16796875 226.17578125 C-93.55815186 225.457854 -93.94833496 224.73992676 -94.3503418 224.00024414 C-103.84749489 206.25707176 -107.90050171 188.81590734 -107.91796875 168.73828125 C-107.91864349 168.04353699 -107.91931824 167.34879272 -107.92001343 166.63299561 C-107.90358916 155.99037885 -107.35173563 145.96342604 -104.66796875 135.61328125 C-104.48572754 134.90042969 -104.30348633 134.18757812 -104.11572266 133.453125 C-102.21237096 126.13865732 -100.10166935 119.21411161 -96.73046875 112.42578125 C-94.90937536 108.67278605 -94.90937536 108.67278605 -95.04296875 104.55078125 C-95.57921875 103.58140625 -96.11546875 102.61203125 -96.66796875 101.61328125 C-112.32670412 72.67361848 -115.42973592 38.14666882 -106.08447266 6.64648438 C-102.61828403 -4.3920378 -98.12142495 -11.491986 -88.03515625 -17.2578125 C-63.01133057 -29.19161715 -21.5069085 -14.31708244 0 0 Z " fill="#020101" transform="translate(180.66796875,19.38671875)"/>
<path d="M0 0 C1.16660156 0.61359375 2.33320313 1.2271875 3.53515625 1.859375 C17.82895961 9.65892497 30.30426367 19.73743909 42 31 C42.6290625 31.5775 43.258125 32.155 43.90625 32.75 C67.3853151 54.90006142 83.21490695 88.82758467 84.1796875 121.0703125 C84.69562713 149.00118016 77.48372131 175.36321838 58.5078125 196.46484375 C39.11312803 216.21124529 13.45234345 227.30486592 -13 234 C-13.95648438 234.26296875 -14.91296875 234.5259375 -15.8984375 234.796875 C-32.71707514 239.12292878 -50.67128088 240.59983882 -68 241 C-69.21042969 241.03254883 -70.42085937 241.06509766 -71.66796875 241.09863281 C-101.86816599 241.84871355 -132.56716771 240.27015546 -162 233 C-162.76650879 232.81856445 -163.53301758 232.63712891 -164.32275391 232.45019531 C-190.59181019 226.19898839 -215.17107266 216.56893034 -237.16015625 200.72265625 C-240.8926521 198.45851503 -242.82766631 199.07281473 -247 200 C-251 200 -251 200 -253.54296875 197.953125 C-254.85201172 196.61507812 -254.85201172 196.61507812 -256.1875 195.25 C-257.50814453 193.92742187 -257.50814453 193.92742187 -258.85546875 192.578125 C-260.81315935 190.22461717 -261.76256406 189.01204452 -262 186 C-261.67 185.67 -261.34 185.34 -261 185 C-260.51480501 178.86293902 -261.20430075 175.77838236 -264.625 170.5 C-279.27762328 146.60440164 -280.79626039 119.21004399 -275.22265625 92.23828125 C-269.04912482 66.88175947 -254.94117118 45.55629705 -237 27 C-236.38640625 26.33484375 -235.7728125 25.6696875 -235.140625 24.984375 C-177.03101297 -36.57729319 -70.23587811 -37.81498174 0 0 Z " fill="#FEDB9B" transform="translate(366,67)"/>
<path d="M0 0 C6.56146474 -0.12098506 12.84599571 0.31011476 19.3515625 1.13671875 C20.32749359 1.25803665 21.30342468 1.37935455 22.30892944 1.50434875 C24.37168682 1.76290946 26.43407233 2.0244525 28.49609375 2.28881836 C31.56639243 2.68003229 34.63841709 3.05443057 37.7109375 3.42773438 C59.11555359 6.10192765 82.21184928 9.17621779 101.3125 19.875 C106.84951048 22.74154674 111.88534769 23.07684148 118 22 C121.42119448 20.68966566 124.68747775 19.16149209 128 17.59765625 C134.892373 14.60706128 142.52273026 13.61411133 149.88818359 12.3605957 C151.62001606 12.06488281 153.34619584 11.73624153 155.0703125 11.3984375 C158.85724878 10.88341417 162.55912753 10.89264797 166.375 10.9375 C167.11105469 10.94201172 167.84710938 10.94652344 168.60546875 10.95117188 C170.40368158 10.96284858 172.20185197 10.98077989 174 11 C174.69977692 35.1034272 167.12545058 55.37295346 152 74 C151.2575 74.99 150.515 75.98 149.75 77 C136.15772031 93.0353365 115.12465122 102.55361109 95 107 C94.26934326 107.17660156 93.53868652 107.35320312 92.78588867 107.53515625 C66.30363963 113.52286573 39.23952117 107.19885625 16 94 C0.81410786 84.34106628 0.81410786 84.34106628 -5 78 C-5 77.34 -5 76.68 -5 76 C-4.3709375 75.90203125 -3.741875 75.8040625 -3.09375 75.703125 C6.80253654 73.97425566 12.54024234 71.07927995 19.23828125 63.51171875 C23.14602164 57.9403727 24.51529896 52.79684986 24.375 46.0625 C24.36484863 45.35738281 24.35469727 44.65226562 24.34423828 43.92578125 C24.08070215 35.10038527 21.19712121 28.34124031 15 22 C8.16600165 16.49381951 1.60897726 15.00104387 -7 14 C-4.69 9.38 -2.38 4.76 0 0 Z " fill="#FAD48F" transform="translate(177,330)"/>
<path d="M0 0 C0 3.98537376 -1.83513568 6.50341919 -3.75 9.875 C-24.69850649 48.15254813 -38.77352698 95.53598558 -28 139 C-27.70996094 140.19109375 -27.41992188 141.3821875 -27.12109375 142.609375 C-19.77043745 170.28967069 -4.73461393 192.61788804 15 213 C15.70769531 213.74765625 16.41539062 214.4953125 17.14453125 215.265625 C21.66425864 219.94183989 26.57075437 223.9992705 31.6796875 228.01953125 C34 230 34 230 36 233 C9.0192859 227.75375004 -15.80542055 217.83243488 -38.16015625 201.72265625 C-41.8926521 199.45851503 -43.82766631 200.07281473 -48 201 C-52 201 -52 201 -54.54296875 198.953125 C-55.85201172 197.61507812 -55.85201172 197.61507812 -57.1875 196.25 C-58.50814453 194.92742187 -58.50814453 194.92742187 -59.85546875 193.578125 C-61.81315935 191.22461717 -62.76256406 190.01204452 -63 187 C-62.67 186.67 -62.34 186.34 -62 186 C-61.51480501 179.86293902 -62.20430075 176.77838236 -65.625 171.5 C-80.27762328 147.60440164 -81.79626039 120.21004399 -76.22265625 93.23828125 C-70.04912482 67.88175947 -55.94117118 46.55629705 -38 28 C-37.38640625 27.33484375 -36.7728125 26.6696875 -36.140625 25.984375 C-26.22445368 15.47912419 -12.88426083 6.44213042 0 0 Z " fill="#F4CC84" transform="translate(167,66)"/>
<path d="M0 0 C7.18933087 1.80796782 13.62667335 3.61300551 20.125 7.25 C26.23105381 10.41610197 31.21111558 11.30232313 38 10 C41.73405722 8.64760107 45.20292207 7.14616547 48.7734375 5.41015625 C51.91257894 4.03820702 54.61311604 3.40417497 58 3 C65.57107878 15.89887496 70.88298089 27.80046985 67.55175781 43.05224609 C64.05412061 54.58732295 56.27382471 64.07323171 45.71484375 69.81640625 C37.96130931 73.19672414 30.59349773 74.1423876 22.1875 73.875 C16.43189021 73.73950458 13.47522985 74.2495303 8.93359375 77.6875 C1.62921371 82.64562463 -8.51813069 82.93774704 -17 82 C-25.33087941 79.94342307 -30.978385 75.56395615 -36.4375 69.125 C-38.52177744 64.95644512 -38.53072943 62.62492788 -38 58 C-36.41575513 55.27157828 -35.13676652 55.04459778 -32.125 54.0625 C-29 54 -29 54 -26.25 55.625 C-24 58 -24 58 -23 60.625 C-22.2033723 63.23726769 -22.2033723 63.23726769 -19.5 64.25 C-18.2625 64.62125 -18.2625 64.62125 -17 65 C-16.34 65.33 -15.68 65.66 -15 66 C-13.0027458 66.12199138 -11.00094019 66.17547512 -9 66.1875 C-7.39125 66.20876953 -7.39125 66.20876953 -5.75 66.23046875 C-2.85546904 66.28585786 -2.85546904 66.28585786 -1 64 C-1.50789063 63.51273437 -2.01578125 63.02546875 -2.5390625 62.5234375 C-10.21813032 54.61428525 -15.2902717 45.39485609 -15.5 34.1875 C-14.81292604 21.037224 -10.72569346 10.1999803 -1 1 C-0.67 0.67 -0.34 0.34 0 0 Z " fill="#EC869F" transform="translate(257,342)"/>
<path d="M0 0 C2.1953125 1.53125 2.1953125 1.53125 4 4 C4.37474368 6.80615152 4.51633914 9.14761173 4.4375 11.9375 C4.44458984 12.64068359 4.45167969 13.34386719 4.45898438 14.06835938 C4.40357254 18.61639269 3.51524233 21.27050275 1 25 C1 28.58371915 1.74478337 29.27587204 3.9375 32 C9.04296015 38.37277296 8.758012 45.06731632 8 53 C5.58541599 60.08578859 -0.76999221 65.50988221 -7.0703125 69.21875 C-11.76598779 71.37843341 -16.33893255 72.23531808 -21.41772461 72.8815918 C-34.86651823 74.59953842 -47.23770742 79.28984353 -58.875 86.28515625 C-62 88 -62 88 -65.75 88 C-69 87 -69 87 -71 85.375 C-72.56474286 81.65873571 -72.31740311 79.82046901 -71 76 C-66.27277893 71.60357769 -56.59292839 65 -50 65 C-50.84884766 63.948125 -50.84884766 63.948125 -51.71484375 62.875 C-52.44832031 61.92625 -53.18179688 60.9775 -53.9375 60 C-54.66839844 59.071875 -55.39929688 58.14375 -56.15234375 57.1875 C-58.43720724 53.24574818 -58.69390624 50.50880964 -59 46 C-60.16917969 46.13019531 -61.33835938 46.26039063 -62.54296875 46.39453125 C-64.0910184 46.53526304 -65.63920373 46.67450794 -67.1875 46.8125 C-67.95642578 46.90208984 -68.72535156 46.99167969 -69.51757812 47.08398438 C-73.850415 47.43730584 -75.42691952 47.42540205 -79.046875 44.73828125 C-81 42 -81 42 -81.0625 38.375 C-79.87986507 34.61839493 -79.27911425 33.95285172 -76 32 C-73.70092773 31.51098633 -73.70092773 31.51098633 -71.18359375 31.33203125 C-69.79769043 31.20538086 -69.79769043 31.20538086 -68.38378906 31.07617188 C-67.41151367 30.98916016 -66.43923828 30.90214844 -65.4375 30.8125 C-56.86374606 29.87313895 -51.86212304 28.55643074 -45.29296875 22.875 C-38.55991651 17.36926734 -29.32444229 17.18032985 -21 18 C-18.30506803 18.58641426 -15.6644519 19.28088449 -13 20 C-12.81824219 18.80761719 -12.63648438 17.61523438 -12.44921875 16.38671875 C-12.19595074 14.82020918 -11.94200928 13.25380838 -11.6875 11.6875 C-11.56955078 10.90181641 -11.45160156 10.11613281 -11.33007812 9.30664062 C-11.20439453 8.54931641 -11.07871094 7.79199219 -10.94921875 7.01171875 C-10.78425903 5.96697388 -10.78425903 5.96697388 -10.6159668 4.90112305 C-8.86401481 -0.50611045 -5.17248107 -0.63521697 0 0 Z " fill="#FC90A9" transform="translate(229,135)"/>
<path d="M0 0 C3.5 0.5625 3.5 0.5625 5.703125 2.05078125 C8.33760123 5.73332084 7.93995816 8.90693198 7.75 13.3125 C7.73195313 14.10527344 7.71390625 14.89804688 7.6953125 15.71484375 C7.64833082 17.66458348 7.57659044 19.61369878 7.5 21.5625 C8.49 21.2325 9.48 20.9025 10.5 20.5625 C21.89962096 19.83630192 30.68900477 21.65898735 40.5 27.5625 C42.8481744 29.66086861 44.81915938 31.76132247 46.84814453 34.14892578 C48.9057485 35.90971901 50.32871294 36.15014345 52.9921875 36.5546875 C53.86230469 36.70292969 54.73242188 36.85117188 55.62890625 37.00390625 C57.45082071 37.29157695 59.2737506 37.57289285 61.09765625 37.84765625 C66.6515132 38.80748086 70.03570565 39.75017479 73.5 44.5625 C73.5 48.04053923 73.30189639 50.37311006 71.3359375 53.2890625 C68.55552503 55.21760392 66.43277608 54.66068696 63.125 54.3125 C62.00351562 54.20421875 60.88203125 54.0959375 59.7265625 53.984375 C56.94678157 53.62091696 54.23822335 53.15732005 51.5 52.5625 C51.4175 53.26375 51.335 53.965 51.25 54.6875 C49.94500367 59.68998594 46.97719878 63.19163006 43.35546875 66.75390625 C42.81946045 67.28314697 42.28345215 67.8123877 41.73120117 68.35766602 C41.12175659 68.95405884 41.12175659 68.95405884 40.5 69.5625 C41.62019531 70.24957031 42.74039063 70.93664062 43.89453125 71.64453125 C45.36732102 72.55447143 46.83996993 73.46463962 48.3125 74.375 C49.41948242 75.05272461 49.41948242 75.05272461 50.54882812 75.74414062 C51.26103516 76.18564453 51.97324219 76.62714844 52.70703125 77.08203125 C53.3616333 77.48526611 54.01623535 77.88850098 54.69067383 78.30395508 C58.02852087 80.62572023 59.32472341 81.93150428 60.4375 85.9375 C60.5 89.5625 60.5 89.5625 58.9375 92.5 C56.5 94.5625 56.5 94.5625 53.87890625 95.0078125 C49.10351785 94.37845495 45.97052285 92.11745623 42 89.5 C40.39041116 88.48318546 38.77840613 87.47018608 37.1640625 86.4609375 C36.37161133 85.96432617 35.57916016 85.46771484 34.76269531 84.95605469 C26.21811472 79.69359612 17.8823369 76.21817596 8.12866211 74.0402832 C-1.25124301 71.84130999 -8.02684766 66.43110406 -13.5 58.5625 C-16.50174499 52.54890313 -16.34207615 46.11762725 -15.5 39.5625 C-13.25629069 34.32475002 -10.13269178 30.81545532 -5.5 27.5625 C-5.98460693 26.70096313 -5.98460693 26.70096313 -6.47900391 25.82202148 C-8.1308031 22.16649744 -7.86864266 18.5824448 -7.875 14.625 C-7.89949219 13.82642578 -7.92398437 13.02785156 -7.94921875 12.20507812 C-7.96916607 8.19234162 -7.79050757 6.05045211 -5.6953125 2.53125 C-3.5 0.5625 -3.5 0.5625 0 0 Z " fill="#FD90A9" transform="translate(370.5,142.4375)"/>
<path d="M0 0 C4.89763526 2.63021153 8.17631826 5.69817508 10.375 10.8125 C11.7381556 16.79590864 10.06417656 20.8897113 7 26.0625 C6.37351563 27.03703125 5.74703125 28.0115625 5.1015625 29.015625 C1.72052233 34.49260411 0.77020201 38.46212106 1.375 44.8125 C3.82494854 48.26057573 6.43145496 49.49239131 10.375 50.8125 C12.49536575 51.00038051 14.62234083 51.12180031 16.75 51.1875 C23.9942199 51.67044799 27.83050952 52.93320814 32.75 58.5 C35.11125642 63.31333039 36.28828334 67.76643145 34.7109375 73.02734375 C32.34247658 78.19752063 29.32365006 81.38222334 24.15234375 83.890625 C13.19089883 87.52902303 0.48884543 84.36455688 -9.48046875 79.38671875 C-14.16047288 76.71144312 -18.04731225 73.88708883 -21.625 69.8125 C-22.10453125 69.34714844 -22.5840625 68.88179688 -23.078125 68.40234375 C-30.28768817 60.99251494 -33.10001896 51.46030015 -33.1875 41.3125 C-32.89971388 27.46798679 -27.62091298 15.90969457 -19.625 4.8125 C-13.25292392 -0.81321285 -8.46678321 -2.7736014 0 0 Z " fill="#EAA550" transform="translate(152.625,307.1875)"/>
<path d="M0 0 C4.92618067 1.85988454 9.63050255 4.16440099 14.375 6.4375 C19.87437866 9.07118681 25.37589204 11.64272564 31 14 C17.73910042 32.69405456 -6.19033874 56.82274534 -29.59375 61.7578125 C-34.19841024 61.92877761 -37.2890638 61.31738223 -41.5 59.4375 C-46.11462539 54.93824024 -48.21155485 51.33136748 -48.5 44.9375 C-48.27125024 40.21238783 -47.24685634 37.57154198 -44 34 C-39.43547376 29.95156341 -34.19583604 26.8274904 -29.0625 23.5625 C-18.3552383 16.74097221 -9.22329434 8.68158617 0 0 Z " fill="#EBA550" transform="translate(182,435)"/>
<path d="M0 0 C5.71802882 2.3295673 9.80054645 4.6883741 12.671875 10.39453125 C14.29808462 14.97502167 14.22591955 18.94569083 12.62109375 23.52734375 C7.88939356 32.16308699 -1.63226052 37.14812426 -9.625 42.375 C-10.54812988 42.98794922 -11.47125977 43.60089844 -12.42236328 44.23242188 C-68.44481684 81.375 -68.44481684 81.375 -80.625 81.375 C-80.625 79.725 -80.625 78.075 -80.625 76.375 C-79.75617188 76.09527344 -78.88734375 75.81554687 -77.9921875 75.52734375 C-70.87874493 73.05275691 -65.54740759 71.00573665 -61.625 64.375 C-60.78582031 63.03115234 -60.78582031 63.03115234 -59.9296875 61.66015625 C-58.54516458 58.17397729 -58.72804972 56.07379435 -59.17675781 52.41235352 C-59.54507192 48.39491755 -59.50434112 45.01579937 -57.625 41.375 C-51.85821352 36.40209337 -44.33715031 33.75404734 -37.43798828 30.71289062 C-31.44382035 27.86199319 -26.61165138 23.70966104 -21.625 19.375 C-20.7278125 18.62605469 -19.830625 17.87710937 -18.90625 17.10546875 C-14.4707633 13.29121739 -10.88026421 9.48544963 -7.4375 4.75 C-4.09898167 0.42403259 -4.09898167 0.42403259 0 0 Z " fill="#E8A44F" transform="translate(446.625,262.625)"/>
<path d="M0 0 C17.50517394 4.1488354 38.53070355 12.29844366 51 26 C51 27.32 51 28.64 51 30 C49.03746017 31.75401997 47.13600047 33.23524714 45 34.75 C32.66310973 43.98513466 21.9888532 54.98258863 12.91796875 67.42578125 C11.37942525 69.49075104 9.88379362 71.25882798 8 73 C-3.56378129 51.1829993 -6.72219957 23.80779016 0 0 Z " fill="#FB8FA8" transform="translate(88,37)"/>
<path d="M0 0 C6.28765366 18.86296097 -1.56109699 45.13881042 -9.84863281 62.02685547 C-11.19857725 64.70280916 -12.58684347 67.35694931 -14 70 C-14.99 70 -15.98 70 -17 70 C-18.51482774 67.77338573 -19.82719361 65.59912578 -21.125 63.25 C-30.21874832 47.50052054 -42.05806489 34.65433655 -55 22 C-43.6731358 12.18338436 -29.14250938 6.34883074 -14.9375 2.0625 C-14.247771 1.85101318 -13.55804199 1.63952637 -12.84741211 1.42163086 C-8.46713989 0.16928743 -4.54319936 -0.19496174 0 0 Z " fill="#FC8FA9" transform="translate(465,58)"/>
<path d="M0 0 C-0.79665 11.68419996 -6.39093612 21.27250426 -15 29 C-24.16242827 36.21102924 -34.33726443 38.24001743 -45.8125 37.875 C-51.56810979 37.73950458 -54.52477015 38.2495303 -59.06640625 41.6875 C-66.37078629 46.64562463 -76.51813069 46.93774704 -85 46 C-93.33087941 43.94342307 -98.978385 39.56395615 -104.4375 33.125 C-106.52177744 28.95644512 -106.53072943 26.62492788 -106 22 C-104.41575513 19.27157828 -103.13676652 19.04459778 -100.125 18.0625 C-97 18 -97 18 -94.25 19.625 C-92 22 -92 22 -91 24.625 C-90.2033723 27.23726769 -90.2033723 27.23726769 -87.5 28.25 C-86.675 28.4975 -85.85 28.745 -85 29 C-84.34 29.33 -83.68 29.66 -83 30 C-81.0027458 30.12199138 -79.00094019 30.17547512 -77 30.1875 C-75.9275 30.20167969 -74.855 30.21585937 -73.75 30.23046875 C-70.85546904 30.28585786 -70.85546904 30.28585786 -69 28 C-71.475 25.03 -71.475 25.03 -74 22 C-72.86046875 21.84144531 -71.7209375 21.68289063 -70.546875 21.51953125 C-47.17260506 18.1314855 -25.44491813 11.91050882 -4.21875 1.5390625 C-1 0 -1 0 0 0 Z " fill="#FE91AA" transform="translate(325,378)"/>
<path d="M0 0 C0.34434244 5.80790919 -0.77678137 10.14835471 -2.8125 15.5625 C-3.07353516 16.29146484 -3.33457031 17.02042969 -3.60351562 17.77148438 C-4.81021283 21.08170807 -6.08410586 24.16206701 -7.7109375 27.296875 C-9.44000739 30.92268215 -8.94269955 33.15668645 -8 37 C-7.34 37.99 -6.68 38.98 -6 40 C-7.24685757 41.58580914 -8.49763026 43.1685404 -9.75 44.75 C-10.44609375 45.63171875 -11.1421875 46.5134375 -11.859375 47.421875 C-13.79945897 49.75847248 -15.81512186 51.8938562 -18 54 C-18.70125 53.649375 -19.4025 53.29875 -20.125 52.9375 C-24.99487071 51.34949868 -28.83879712 52.92012986 -33.5 54.5625 C-37.99889644 56.07214638 -41.41948313 57.04126119 -46.00390625 55.19140625 C-51.00823446 52.52796085 -53.41655803 49.56438292 -55.37109375 44.26171875 C-56.499105 40.20508203 -56.88304785 37.05902984 -55.1875 33.10546875 C-52.29580114 28.01487388 -48.33501525 24.1679134 -44.1015625 20.17578125 C-42.18054868 18.18692493 -41.129356 16.54702887 -39.875 14.125 C-38.11772995 11.52755369 -37.14946007 11.04159408 -34.06640625 10.18359375 C-31.54269385 9.75165589 -29.01489511 9.34320518 -26.484375 8.953125 C-18.57236052 7.51131638 -11.16977009 3.85833881 -3.82495117 0.68676758 C-2 0 -2 0 0 0 Z " fill="#EBA550" transform="translate(306,441)"/>
<path d="M0 0 C0.92111572 0.01393799 1.84223145 0.02787598 2.79125977 0.04223633 C26.39005919 0.66727571 52.73730196 8.74135813 70.125 25.4375 C70.125 26.4275 70.125 27.4175 70.125 28.4375 C69.10345825 28.92162354 69.10345825 28.92162354 68.0612793 29.41552734 C64.97720213 30.87877371 61.89483773 32.34559329 58.8125 33.8125 C57.74064453 34.32039063 56.66878906 34.82828125 55.56445312 35.3515625 C54.53642578 35.84140625 53.50839844 36.33125 52.44921875 36.8359375 C51.50135498 37.28630371 50.55349121 37.73666992 49.5769043 38.20068359 C46.96929823 39.45425692 46.96929823 39.45425692 44.125 41.4375 C39.85075186 41.2885066 36.93677362 38.04528177 33.8125 35.4375 C18.21793006 22.86975013 0.29825463 14.15188177 -18.875 8.4375 C-17.67405807 4.7012362 -15.39160287 3.01797534 -11.97558594 1.21826172 C-8.04467991 -0.24280726 -4.14647778 -0.10555779 0 0 Z " fill="#E9A44F" transform="translate(111.875,14.5625)"/>
<path d="M0 0 C1.34896655 -0.01073189 2.69792562 -0.02244876 4.046875 -0.03515625 C12.75320876 -0.00929585 20.32054871 0.19168361 27.1875 5.9375 C29.125 8.375 29.125 8.375 29.125 10.375 C28.55692627 10.50028076 27.98885254 10.62556152 27.40356445 10.75463867 C6.83980463 15.33798957 -12.09848983 21.96730242 -29.54296875 34.02734375 C-32.22947649 35.57984822 -33.75170174 36.34731937 -36.875 36.375 C-39.44136583 34.94957048 -41.65017518 33.53376096 -44 31.8125 C-45.32427389 30.88307617 -46.65112134 29.95730886 -47.98046875 29.03515625 C-48.63450684 28.58027832 -49.28854492 28.12540039 -49.96240234 27.65673828 C-54.07704727 24.8992854 -58.46995559 22.62789174 -62.875 20.375 C-62.875 19.715 -62.875 19.055 -62.875 18.375 C-42.74535543 6.32933503 -23.68029037 -0.20935424 0 0 Z " fill="#E9A44F" transform="translate(432.875,32.625)"/>
<path d="M0 0 C0.33 0 0.66 0 1 0 C1.12375 0.7528125 1.2475 1.505625 1.375 2.28125 C3.88591901 15.21248291 9.3187103 27.80277478 19 37 C16.0435346 39.9564654 12.29907724 40.49242248 8.375 41.625 C-13.12285387 48.15571039 -30.34596961 59.92288771 -46 76 C-46.84691406 76.79664063 -46.84691406 76.79664063 -47.7109375 77.609375 C-51.73374041 81.44546554 -54.47155051 85.044239 -57 90 C-57.33 90 -57.66 90 -58 90 C-58.65649727 84.78905292 -56.40130296 81.18747375 -54 76.75 C-53.56139648 75.93080078 -53.12279297 75.11160156 -52.67089844 74.26757812 C-40.5276103 52.06129323 -26.01335869 30.93662312 -9.41796875 11.82421875 C-6.55765707 8.48333775 -3.88135224 5.02850047 -1.2421875 1.51171875 C-0.83226562 1.01285156 -0.42234375 0.51398438 0 0 Z " fill="#B94366" transform="translate(104,353)"/>
<path d="M0 0 C2.375 3.1875 2.375 3.1875 4 6 C2.54418264 6.6102043 1.08514232 7.21271846 -0.375 7.8125 C-1.18710938 8.14894531 -1.99921875 8.48539062 -2.8359375 8.83203125 C-8.76335432 11.02005301 -14.8638524 12.6712374 -20.9296875 14.4296875 C-43.30886268 20.93233258 -61.35043029 29.86007317 -76.4296875 48.2734375 C-78.16331033 50.17956012 -79.81615154 51.62825703 -82 53 C-85.5625 53 -85.5625 53 -89 52 C-91.13496764 49.52068274 -91.89136575 47.84957552 -92.3046875 44.6171875 C-91.89779156 41.12205567 -90.60296252 39.90467879 -88.1875 37.375 C-87.36507812 36.51003906 -86.54265625 35.64507812 -85.6953125 34.75390625 C-84.36113281 33.39072266 -84.36113281 33.39072266 -83 32 C-82.11054687 31.06027344 -81.22109375 30.12054688 -80.3046875 29.15234375 C-65.85792554 14.19109597 -48.73553544 5.72980962 -29 0 C-28.25943359 -0.2170459 -27.51886719 -0.4340918 -26.75585938 -0.65771484 C-17.25190299 -3.39083758 -8.93379237 -5.75733286 0 0 Z " fill="#E9A44F" transform="translate(152,406)"/>
<path d="M0 0 C3.8600801 0.55059425 7.47765967 1.40606152 11.19921875 2.5612793 C20.97910703 5.54763804 30.94555598 7.41345449 41 9.1875 C41.70499634 9.3136972 42.40999268 9.43989441 43.13635254 9.56991577 C48.0809405 10.44972063 53.03394218 11.25125427 58 12 C58.65952667 12.10278259 59.31905334 12.20556519 59.99856567 12.3114624 C74.19719685 14.45386911 88.47647995 14.30846118 102.8034668 14.26074219 C106.24333923 14.24935962 109.68290182 14.25611679 113.12276363 14.26761913 C127.87001375 14.30953329 142.38340794 14.05888152 157 12 C158.12414307 11.84869629 159.24828613 11.69739258 160.40649414 11.54150391 C163.30018078 11.12999627 166.1805949 10.67421046 169.0625 10.1875 C170.05838135 10.0215332 171.0542627 9.85556641 172.08032227 9.68457031 C180.14664795 8.27814066 187.9693102 6.30131449 195.80859375 3.953125 C199 3 199 3 200 3 C200.29397316 7.99754367 200.0979156 10.98418348 197 15 C193.24860569 17.50092954 189.92323498 17.59763734 185.5546875 17.96484375 C184.711409 18.04368301 183.86813049 18.12252228 182.9992981 18.20375061 C180.2918659 18.4563776 177.5836297 18.69807777 174.875 18.9375 C164.73739965 19.83843446 154.64008432 20.742193 144.609375 22.50390625 C143.59724442 22.68130592 143.59724442 22.68130592 142.56466675 22.86228943 C135.09837231 24.24774179 128.01307349 26.57549656 121.125 29.75 C116.79696971 31.48121212 113.60330802 31.639509 109.23828125 29.8984375 C108.27277344 29.39570313 107.30726563 28.89296875 106.3125 28.375 C78.61972381 15.13604625 46.52564023 12.65796061 16.3671875 9.37890625 C15.56812988 9.29084717 14.76907227 9.20278809 13.94580078 9.11206055 C11.93888447 8.89539213 9.93043546 8.69304355 7.921875 8.4921875 C5 8 5 8 2 6 C0.8125 2.875 0.8125 2.875 0 0 Z " fill="#B54263" transform="translate(174,307)"/>
<path d="M0 0 C-6.69535041 10.85108515 -17.65760247 17.21621359 -28.20507812 23.86181641 C-31.20546715 25.76440259 -34.17545397 27.70710255 -37.125 29.6875 C-38.67574219 30.71423828 -38.67574219 30.71423828 -40.2578125 31.76171875 C-43.17954135 33.90242655 -43.17954135 33.90242655 -45.02734375 37.234375 C-47 40 -47 40 -49.49609375 40.69140625 C-60.09958196 40.22671155 -70.5259657 38.67560781 -81 37 C-75.5342463 25.31226346 -61.28487187 17.66851762 -49.66796875 13.3125 C-41.85088021 10.55273082 -33.92612268 8.40673491 -25.8527832 6.54907227 C-19.66725444 5.06494878 -14.0032865 2.66777608 -8.20703125 0.07421875 C-4.86652913 -1.04470705 -3.30402482 -1.06400799 0 0 Z " fill="#B84365" transform="translate(170,425)"/>
<path d="M0 0 C2.42130331 3.63195496 2.21022785 5.38349348 2.125 9.6875 C2.10695313 10.86699219 2.08890625 12.04648437 2.0703125 13.26171875 C2.04710937 14.16535156 2.02390625 15.06898438 2 16 C-18.05709881 26.50863954 -48.73023791 41.51241692 -72 38 C-76.2869085 34.40826585 -77.50020464 29.21519751 -79 24 C-78.02804688 23.91363281 -77.05609375 23.82726562 -76.0546875 23.73828125 C-50.52497421 21.23536818 -26.61012674 14.05319256 -4 2 C-2.66923565 1.32821992 -1.33732115 0.65863067 0 0 Z " fill="#EE87A0" transform="translate(323,362)"/>
<path d="M0 0 C1.95542188 2.98459129 2 4.26414791 2 8 C-22.26565346 20.56329496 -50.11891567 32.42573727 -78 31 C-79.1577506 27.52674819 -79.06866652 24.63932552 -79 21 C-77.88367188 20.84144531 -76.76734375 20.68289063 -75.6171875 20.51953125 C-51.53990819 16.98412667 -26.48490094 12.10752494 -5.109375 -0.06640625 C-3 -1 -3 -1 0 0 Z " fill="#FE91AA" transform="translate(321,355)"/>
<path d="M0 0 C4.10246844 1.49897885 6.95561333 3.82073011 10.296875 6.59375 C13.7891991 9.44348647 16.40832653 9.51586027 20.796875 9.48046875 C25.95306451 8.86468179 30.01272678 6.01234881 34.25 3.1875 C38.16054241 2.76089537 40.37030578 2.60103719 43.6875 4.8125 C45.25 7.1875 45.25 7.1875 45.9375 10 C44.87706798 14.91654846 42.24868158 17.27320665 38.25 20.1875 C29.45215965 25.29178638 20.43545815 27.00673198 10.48828125 24.48828125 C3.74846208 22.04212942 -2.24899925 18.31375094 -6.75 12.6875 C-8.01103993 9.53490017 -8.32218867 7.54910842 -7.75 4.1875 C-5.25711988 1.32801987 -3.80883199 0.25969309 0 0 Z " fill="#060503" transform="translate(278.75,149.8125)"/>
<path d="M0 0 C0.82693359 0.00185303 1.65386719 0.00370605 2.50585938 0.00561523 C3.90288086 0.0013855 3.90288086 0.0013855 5.328125 -0.00292969 C6.32521484 0.01922607 7.32230469 0.04138184 8.34960938 0.06420898 C9.37248047 0.07669678 10.39535156 0.08918457 11.44921875 0.10205078 C23.29797283 0.37109022 36.12603753 1.01806429 46.84960938 6.50170898 C48.84960938 9.50170898 48.84960938 9.50170898 48.66210938 13.00170898 C47.59591334 17.59455346 47.59591334 17.59455346 44.84960938 19.50170898 C42.06445312 19.64624023 42.06445312 19.64624023 38.78710938 19.31420898 C37.19189453 19.16918945 37.19189453 19.16918945 35.56445312 19.02124023 C32.69540132 18.61999534 29.97849068 18.09946891 27.15820312 17.47436523 C20.44462683 16.08668534 13.72096883 16.14567789 6.88867188 16.11108398 C-0.51422868 15.93575213 -0.51422868 15.93575213 -3.81835938 13.68139648 C-5.77818938 10.47440192 -5.61046807 8.18232853 -5.15039062 4.50170898 C-3.68169366 1.90277662 -2.95783591 0.69009455 0 0 Z " fill="#060404" transform="translate(395.150390625,177.498291015625)"/>
<path d="M0 0 C3.4736506 1.1805244 6.71587086 2.74731061 10 4.375 C10.9182959 4.82254639 11.8365918 5.27009277 12.78271484 5.73120117 C18.59355353 8.62852319 24.19631211 11.74924226 29.625 15.3125 C30.53765625 15.90587158 30.53765625 15.90587158 31.46875 16.51123047 C34.96009003 18.9095156 37.23726311 21.12827434 39 25 C38.8733144 28.16714007 38.51056927 30.193838 36.8125 32.875 C34.00958761 34.61473873 32.2844174 34.37160837 29 34 C25.9938423 32.57727856 23.27253527 30.76687501 20.5 28.9375 C12.86330982 24.0757972 5.16865566 19.89386695 -3 16 C-8.82337884 13.22269625 -8.82337884 13.22269625 -10.4375 11.1875 C-11.22172343 8.13774222 -10.8349927 6.01881977 -10 3 C-7.67892499 -0.86845835 -4.08412092 -0.59530614 0 0 Z " fill="#050403" transform="translate(392,203)"/>
<path d="M0 0 C3.0625 2.125 3.0625 2.125 5 5 C5 8.2350337 4.76013721 10.08953352 2.66674805 12.59692383 C-0.14630979 14.96496885 -3.71836486 15.65278201 -7.1875 16.6875 C-17.11435079 19.80362413 -26.15163471 24.17261835 -35.22265625 29.2421875 C-38.32490622 30.56490507 -40.82511684 29.80815208 -44 29 C-46 27.375 -46 27.375 -47 25 C-47.25 21.625 -47.25 21.625 -46 18 C-37.06909807 9.15885588 -12.45013206 -2.26366037 0 0 Z " fill="#050403" transform="translate(204,193)"/>
<path d="M0 0 C2.24263898 -0.00975803 4.4843797 -0.040879 6.72680664 -0.07226562 C8.17146274 -0.07879297 9.61612529 -0.0840445 11.06079102 -0.08789062 C12.35573486 -0.09723633 13.65067871 -0.10658203 14.98486328 -0.11621094 C19.98280434 0.36566148 24.04126885 1.59961846 27.68188477 5.24023438 C28.03646233 8.50234796 28.09494535 10.51820865 26.44833374 13.39646912 C24.24021921 15.70123133 23.25328389 15.77274073 20.10620117 15.86547852 C19.18159088 15.9013356 18.25698059 15.93719269 17.30435181 15.97413635 C16.30745331 15.99105026 15.31055481 16.00796417 14.28344727 16.02539062 C13.25633636 16.05378525 12.22922546 16.08217987 11.17098999 16.11143494 C8.99743639 16.16548963 6.8236098 16.20937657 4.6496582 16.24389648 C1.32531256 16.30241002 -1.99514432 16.40891337 -5.31811523 16.51953125 C-7.43003207 16.56607126 -9.54201348 16.60978442 -11.65405273 16.65039062 C-13.14332779 16.70308861 -13.14332779 16.70308861 -14.66268921 16.7568512 C-19.36184074 16.79464796 -21.58737833 16.77144863 -25.48071289 13.94116211 C-27.31811523 11.24023438 -27.31811523 11.24023438 -27.38061523 7.61523438 C-26.31811523 4.24023438 -26.31811523 4.24023438 -24.75561523 2.36523438 C-17.39278059 -1.032997 -7.94948856 0.020922 0 0 Z " fill="#050303" transform="translate(175.318115234375,165.759765625)"/>
<path d="M0 0 C0.37851209 5.93002267 -0.89424625 10.47239641 -3 16 C-4.23169922 16.17402344 -4.23169922 16.17402344 -5.48828125 16.3515625 C-9.49235871 17.09091384 -13.28997103 18.21434352 -17.1875 19.375 C-24.63308837 21.55396948 -31.99839593 22.95299954 -39.7175293 23.74755859 C-45.02012673 24.41002695 -47.49302963 25.68803643 -51 30 C-51.66 29.67 -52.32 29.34 -53 29 C-52.26394531 28.28714844 -51.52789062 27.57429688 -50.76953125 26.83984375 C-49.78317267 25.87309066 -48.79754378 24.90559274 -47.8125 23.9375 C-47.0405127 23.18629883 -47.0405127 23.18629883 -46.25292969 22.41992188 C-43.58283455 19.77197814 -41.46630636 17.33925714 -39.75 14 C-38.04550975 11.44025315 -37.10765926 11.02975363 -34.07421875 10.19140625 C-31.54831221 9.75459534 -29.01784883 9.34366049 -26.484375 8.953125 C-18.57236052 7.51131638 -11.16977009 3.85833881 -3.82495117 0.68676758 C-2 0 -2 0 0 0 Z " fill="#D8953F" transform="translate(306,441)"/>
<path d="M0 0 C8.77220291 -0.3189892 17.31824479 0.88363194 26 2 C25.01 2.66 24.02 3.32 23 4 C22.12941612 6.10413634 22.12941612 6.10413634 21.61328125 8.5703125 C21.39736328 9.46621094 21.18144531 10.36210937 20.95898438 11.28515625 C20.63897461 12.69087891 20.63897461 12.69087891 20.3125 14.125 C19.97508789 15.54232422 19.97508789 15.54232422 19.63085938 16.98828125 C19.07660239 19.32323622 18.53349306 21.66022924 18 24 C17.26394531 23.51789063 16.52789062 23.03578125 15.76953125 22.5390625 C14.79371094 21.90742188 13.81789062 21.27578125 12.8125 20.625 C11.84957031 19.99851562 10.88664062 19.37203125 9.89453125 18.7265625 C5.68415384 16.21510931 2.07042992 14.81227731 -2.8125 14.375 C-4.194375 14.25125 -5.57625 14.1275 -7 14 C-4.69 9.38 -2.38 4.76 0 0 Z " fill="#EEC478" transform="translate(177,330)"/>
<path d="M0 0 C4.92618067 1.85988454 9.63050255 4.16440099 14.375 6.4375 C19.87437866 9.07118681 25.37589204 11.64272564 31 14 C30.06862408 15.29608947 29.1296434 16.58671632 28.1875 17.875 C27.66542969 18.59429687 27.14335937 19.31359375 26.60546875 20.0546875 C25 22 25 22 22 24 C19.98217773 23.49609375 19.98217773 23.49609375 17.68359375 22.4375 C16.84086914 22.0552124 15.99814453 21.6729248 15.12988281 21.27905273 C14.24139648 20.85696533 13.35291016 20.43487793 12.4375 20 C11.53741211 19.58371338 10.63732422 19.16742676 9.70996094 18.73852539 C3.56349758 15.85493758 -2.35487903 12.78817328 -8 9 C-7.04270084 7.87411986 -6.08412105 6.7493285 -5.125 5.625 C-4.59132812 4.99851562 -4.05765625 4.37203125 -3.5078125 3.7265625 C-2.38567993 2.44163349 -1.20628025 1.20628025 0 0 Z " fill="#DB9740" transform="translate(182,435)"/>
<path d="M0 0 C0.33 0 0.66 0 1 0 C1.17015625 0.82242187 1.3403125 1.64484375 1.515625 2.4921875 C3.99746713 13.92450283 7.70814351 23.14275817 14 33 C0.82643786 29.59304427 -11.31066644 20.38765102 -21 11 C-21 10.34 -21 9.68 -21 9 C-20.3709375 8.90203125 -19.741875 8.8040625 -19.09375 8.703125 C-11.60864267 7.39548577 -5.38930209 5.5150001 0 0 Z " fill="#EDC378" transform="translate(193,397)"/>
<path d="M0 0 C7.96127876 2.32497521 14.95256101 5.19735878 22.03125 9.53125 C22.03125 10.19125 22.03125 10.85125 22.03125 11.53125 C-5.32014165 18.88860586 -5.32014165 18.88860586 -14.96875 18.53125 C-14.48487238 13.57517018 -13.07808018 10.73849368 -10.09375 6.78125 C-9.39507812 5.83765625 -8.69640625 4.8940625 -7.9765625 3.921875 C-4.13442957 -0.65280467 -4.13442957 -0.65280467 0 0 Z " fill="#FC90A9" transform="translate(259.96875,342.46875)"/>
<path d="M0 0 C4.11985762 0.66211997 5.05967656 1.2419735 7.5 4.5625 C7.87474368 7.36865152 8.01633914 9.71011173 7.9375 12.5 C7.94458984 13.20318359 7.95167969 13.90636719 7.95898438 14.63085938 C7.90447185 19.10507948 7.26681424 22.02748793 4.5 25.5625 C1.5 27.5625 1.5 27.5625 -1.5 27.375 C-4.63905465 26.52483936 -5.54340026 26.04934647 -7.5 23.5625 C-8.11832875 20.63412493 -7.96361364 17.67395065 -7.9375 14.6875 C-7.95748047 13.88441406 -7.97746094 13.08132812 -7.99804688 12.25390625 C-7.99473516 8.23348348 -7.78989424 6.04899638 -5.69140625 2.52734375 C-3.5 0.5625 -3.5 0.5625 0 0 Z " fill="#060504" transform="translate(370.5,142.4375)"/>
<path d="M0 0 C3.6875 0.3125 3.6875 0.3125 5.890625 1.8359375 C8.34929781 5.22463003 8.23873208 8.2253518 8.125 12.25 C8.13208984 12.95318359 8.13917969 13.65636719 8.14648438 14.38085938 C8.09197185 18.85507948 7.45431424 21.77748793 4.6875 25.3125 C1.6875 27.3125 1.6875 27.3125 -1.3125 27.125 C-5.49831388 25.99134207 -5.49831388 25.99134207 -7.3125 23.3125 C-7.61182215 20.43079069 -7.73122379 17.81355365 -7.6875 14.9375 C-7.69910156 14.18210938 -7.71070313 13.42671875 -7.72265625 12.6484375 C-7.69156692 6.72073781 -6.75679637 0.63743362 0 0 Z " fill="#060504" transform="translate(225.3125,134.6875)"/>
<path d="M0 0 C4.55235431 1.33892774 8.4306354 3.96242706 11 8 C10.76561271 11.53001462 8.99467502 13.49842327 6.6875 16.0625 C6.09324219 16.73410156 5.49898437 17.40570313 4.88671875 18.09765625 C3.00916879 19.99075528 1.25780196 21.57891288 -1 23 C-4.5625 23 -4.5625 23 -8 22 C-10.11796378 19.54042916 -10.87702386 17.84952481 -11.33984375 14.65234375 C-10.86535722 10.94916729 -9.18290172 9.47933444 -6.625 6.8125 C-5.81289062 5.95269531 -5.00078125 5.09289062 -4.1640625 4.20703125 C-2.78264368 2.79818354 -1.39520067 1.39520067 0 0 Z " fill="#F6D299" transform="translate(71,436)"/>
<path d="M0 0 C3.86079801 0.55069665 7.47896765 1.40689981 11.20141602 2.56152344 C21.16988955 5.60754491 31.31114529 7.46113724 41.5625 9.25 C42.30592651 9.38046722 43.04935303 9.51093445 43.81530762 9.64535522 C51.52177266 10.99053579 59.20686592 12.26364087 67 13 C67 13.33 67 13.66 67 14 C61.27604059 14.91687678 56.43532411 14.93950861 50.72265625 14.07421875 C49.95304062 13.96656693 49.18342499 13.8589151 48.39048767 13.7480011 C45.94632435 13.40422478 43.50447426 13.04646416 41.0625 12.6875 C38.66206052 12.34360794 36.2612154 12.00271121 33.86019897 11.66287231 C32.27267503 11.43769492 30.68545128 11.2103905 29.09854126 10.98092651 C25.11232798 10.41043985 21.12811002 9.88904248 17.12451172 9.45556641 C16.34595322 9.37071487 15.56739471 9.28586334 14.76524353 9.19844055 C13.29040372 9.04153595 11.81478724 8.8917129 10.33839417 8.75016785 C6.82017898 8.37693298 5.00910755 8.0060717 2 6 C0.8125 2.875 0.8125 2.875 0 0 Z " fill="#AD3F5F" transform="translate(174,307)"/>
<path d="M0 0 C1.06541016 0.05607422 1.06541016 0.05607422 2.15234375 0.11328125 C3.32796875 0.16548828 3.32796875 0.16548828 4.52734375 0.21875 C8.72313541 0.55773927 12.90864222 0.93695602 17.08984375 1.42578125 C12.33561646 8.9141246 12.33561646 8.9141246 7.58984375 10.86328125 C6.43484375 11.04890625 5.27984375 11.23453125 4.08984375 11.42578125 C3.14109375 11.63203125 2.19234375 11.83828125 1.21484375 12.05078125 C-2.83997459 12.53735945 -6.83193893 12.5073456 -10.91015625 12.42578125 C-8.91015625 9.75911458 -6.91015625 7.09244792 -4.91015625 4.42578125 C-4.43320313 3.68457031 -3.95625 2.94335938 -3.46484375 2.1796875 C-1.91015625 0.42578125 -1.91015625 0.42578125 0 0 Z " fill="#B64264" transform="translate(230.91015625,452.57421875)"/>
<path d="M0 0 C2.375 3.1875 2.375 3.1875 4 6 C2.4252706 6.72726052 0.83975721 7.43120422 -0.75 8.125 C-2.07257813 8.71667969 -2.07257813 8.71667969 -3.421875 9.3203125 C-6 10 -6 10 -8.1328125 9.3984375 C-10.41680748 7.68783038 -11.6232509 5.92166871 -13.125 3.5 C-14.65836381 1.05297382 -15.95347537 -0.95347537 -18 -3 C-11.50181381 -4.7722326 -5.63006252 -3.62826251 0 0 Z " fill="#D9963F" transform="translate(152,406)"/>
<path d="M0 0 C0 0.99 0 1.98 0 3 C-1.78953185 3.83790789 -3.58169695 4.67019396 -5.375 5.5 C-6.87160156 6.19609375 -6.87160156 6.19609375 -8.3984375 6.90625 C-11 8 -11 8 -13 8 C-13 6.35 -13 4.7 -13 3 C-11.21189234 2.30329584 -9.41937948 1.61788811 -7.625 0.9375 C-6.62726563 0.55464844 -5.62953125 0.17179687 -4.6015625 -0.22265625 C-2 -1 -2 -1 0 0 Z " fill="#D1903E" transform="translate(379,336)"/>
<path d="M0 0 C1.11181641 0.13857422 2.22363281 0.27714844 3.36914062 0.41992188 C5.09487305 0.64711914 5.09487305 0.64711914 6.85546875 0.87890625 C8.02529297 1.02650391 9.19511719 1.17410156 10.40039062 1.32617188 C13.28223408 1.69081329 16.16293276 2.06279656 19.04296875 2.44140625 C19.04296875 2.77140625 19.04296875 3.10140625 19.04296875 3.44140625 C12.24694421 4.66307257 6.33642873 4.05145421 -0.45703125 3.00390625 C-1.47023437 2.85630859 -2.4834375 2.70871094 -3.52734375 2.55664062 C-6.00545541 2.19427524 -8.48171894 1.82234634 -10.95703125 1.44140625 C-10.95703125 1.11140625 -10.95703125 0.78140625 -10.95703125 0.44140625 C-7.07784714 -0.53384245 -3.95725793 -0.50734076 0 0 Z " fill="#A23B59" transform="translate(221.95703125,317.55859375)"/>
<path d="M0 0 C-0.66 0.66 -1.32 1.32 -2 2 C-5.0390625 1.9765625 -5.0390625 1.9765625 -8.625 1.625 C-9.81351563 1.51414062 -11.00203125 1.40328125 -12.2265625 1.2890625 C-13.14179688 1.19367188 -14.05703125 1.09828125 -15 1 C-15 0.67 -15 0.34 -15 0 C-9.96266834 -1.5111995 -5.11828973 -0.64599773 0 0 Z " fill="#89324B" transform="translate(226,318)"/>
</svg>
